<?xml version="1.0" encoding="UTF-8" standalone="no"?><svg xmlns:svg="http://www.w3.org/2000/svg" xmlns="http://www.w3.org/2000/svg" version="1.1" style="overflow:visible" viewBox="-300 -300 500 500" height="15px" width="15px"><rect fill-opacity="0" fill="rgb(0,0,0)" height="500" width="500" y="-250" x="-250" /><svg version="1.1" y="-250" x="-250" viewBox="-250 -250 500 500" height="500px" width="500px" style="overflow:visible"><g transform="rotate(0,0,0)" stroke-linejoin="round" fill="#fff"><path stroke-linecap="round" stroke-linejoin="round" stroke-width="40" stroke-opacity="1" stroke="rgb(255,0,0)" fill="none" d="m-170.991-170.991l341.982 341.982" /><path stroke-linecap="round" stroke-linejoin="round" stroke-width="40" stroke-opacity="1" stroke="rgb(255,0,0)" fill="none" d="m170.991-170.991l-341.982 341.982" /><path stroke-linecap="butt" stroke-linejoin="round" stroke="none" fill="rgb(255,0,0)" d="m43.242999-156.7568a43.2432 43.2432 0 0 1-43.2432 43.2432a43.2432 43.2432 0 0 1-43.2432-43.2432a43.2432 43.2432 0 0 1 43.2432-43.2432a43.2432 43.2432 0 0 1 43.2432 43.2432z" /><path stroke-linecap="butt" stroke-linejoin="round" stroke="none" fill="rgb(255,0,0)" d="m43.242999 156.757a43.2432 43.2432 0 0 1-43.2432 43.2432a43.2432 43.2432 0 0 1-43.2432-43.2432a43.2432 43.2432 0 0 1 43.2432-43.2432a43.2432 43.2432 0 0 1 43.2432 43.2432z" /><path stroke-linecap="butt" stroke-linejoin="round" stroke="none" fill="rgb(255,0,0)" d="m156.757 43.242999a43.2432 43.2432 0 0 1-43.2432-43.2432a43.2432 43.2432 0 0 1 43.2432-43.2432a43.2432 43.2432 0 0 1 43.2432 43.2432a43.2432 43.2432 0 0 1-43.2432 43.2432z" /><path stroke-linecap="butt" stroke-linejoin="round" stroke="none" fill="rgb(255,0,0)" d="m-156.7568 43.242999a43.2432 43.2432 0 0 1-43.2432-43.2432a43.2432 43.2432 0 0 1 43.2432-43.2432a43.2432 43.2432 0 0 1 43.2432 43.2432a43.2432 43.2432 0 0 1-43.2432 43.2432z" /></g></svg></svg>