  <!--?xml version="1.0" encoding="utf-8"?-->
<!-- Generator: Adobe Illustrator 15.1.0, SVG Export Plug-In . SVG Version: 6.00 Build 0)  -->

<svg version="1.1" id="_x32_" xmlns="http://www.w3.org/2000/svg" xmlns:xlink="http://www.w3.org/1999/xlink" x="0px" y="0px" width="16px" height="16px" viewBox="0 0 512 512" style="width: 16px; height: 16px; opacity: 1;" xml:space="preserve">
<style type="text/css">

  -.st0{fill:#000;}

</style>
<g>
  <path class="st0" d="M256.008,0C115.945,0,3.102,101.672,7.945,242.078l7.266,91.984c4.844,67.781,37.922,93.625,86.094,79.25
    c28.5-8.234,25.266,16.375,25.266,62.078c0,15.641-2.422,36.609,20.984,36.609c18.297,0,14.219,0,21.547,0
    c7.313,0,14.641-3.625,14.641-15.125c0-14.656,0-23.844,0-23.844c0-3.719,2.516-6.75,5.906-7.766
    c3.391,1.016,5.906,4.047,5.906,7.766v25.25c0,7.563,6.141,13.719,13.719,13.719h27.031c7.578,0,13.719-6.156,13.719-13.719
    l0.313-25.344c0.031-3.625,2.422-6.563,5.672-7.625c3.234,1.063,5.625,4,5.656,7.625l0.313,25.344
    c0,7.563,6.141,13.719,13.719,13.719h27.031c7.578,0,13.719-6.156,13.719-13.719v-25.25c0-3.719,2.516-6.75,5.906-7.766
    c3.406,1.016,5.922,4.047,5.922,7.766c0,0,0,9.188,0,23.844c0,11.5,7.313,15.125,14.625,15.125c7.328,0,3.266,0,21.563,0
    c23.391,0,20.969-20.969,20.969-36.609c0-45.703-3.219-70.313,25.266-62.078c48.188,14.375,81.266-11.469,86.094-79.25
    l7.266-91.984C508.898,101.672,396.055,0,256.008,0z M207.008,254.688l-4.328,30.391c-3.344,31.922-31.922,55.078-63.844,51.719
    c-31.906-3.359-55.063-31.922-51.719-63.844l4.328-30.391c3.344-31.906,31.922-55.063,63.844-51.703
    C187.195,194.203,210.352,222.781,207.008,254.688z M274.898,402.063c-11.344-3.781-18.891-13.219-18.891-13.219
    s-7.563,9.438-18.891,13.219s-18.891-7.547-15.109-15.109s24.563-52.891,34-52.891s30.203,45.328,33.984,52.891
    S286.211,405.844,274.898,402.063z M373.164,336.797c-31.922,3.359-60.5-19.797-63.844-51.719l-4.328-30.391
    c-3.344-31.906,19.813-60.484,51.719-63.828c31.922-3.359,60.5,19.797,63.844,51.703l4.328,30.391
    C428.227,304.875,405.07,333.438,373.164,336.797z"></path>
</g>
</svg>
